<?xml version="1.0" encoding="utf-8"?>
<!-- Generator: Adobe Illustrator 28.1.0, SVG Export Plug-In . SVG Version: 6.00 Build 0)  -->
<svg version="1.1" id="Capa_1" xmlns="http://www.w3.org/2000/svg" xmlns:xlink="http://www.w3.org/1999/xlink" x="0px" y="0px"
	 viewBox="0 0 252 88" style="enable-background:new 0 0 252 88;" xml:space="preserve">
<style type="text/css">
	.st0{fill:#C20E1A;}
</style>
<g>
	<g>
		<g>
			<g>
				<polygon class="st0" points="174.8,11.5 181.5,41.4 187.6,11.6 213,11.6 213,77 196.9,77 196.9,29.7 186.8,76.8 175.5,76.8 
					164.7,29.7 164.7,76.7 148,76.7 148,11.5 				"/>
				<path class="st0" d="M93,11h41.4v16c0,0-24.9,0-40.3,0c-2.8,0-2.9,2-2.9,4.1c0,2.2-0.1,4.8,2.9,4.8c14.5-0.1,26.4,0,26.4,0
					c7.1,0,14.9,2.2,14.9,12.4l-0.1,18.9c0.1,7.9-6.8,9.7-13.4,9.6H76V61.1c0,0,30.4,0,40.6-0.1c3.6,0,2.8-1.8,2.8-4.2
					c0-2.2,0.6-5.4-3.3-5.3c-5.9,0.2-24.1,0-24.1,0c-7.9-0.2-15.8-2.7-16.3-11.3v-18C75.8,16.7,79.5,11.6,93,11L93,11z"/>
				<polygon class="st0" points="6.1,33.8 24.1,15.8 24.1,36.3 45.6,36.3 45.6,11.5 63.5,11.5 63.5,76.5 45.4,76.6 45.4,51.3 
					24.1,51.3 24.1,76.6 6.1,76.5 				"/>
			</g>
			<polygon class="st0" points="6.1,11.5 24.1,11.5 6.1,29.7 			"/>
		</g>
		<g>
			<path class="st0" d="M245.9,22.5c0,6.2-5,11.2-11.1,11.2c-6.2,0-11.2-5-11.2-11.2s5-11.1,11.2-11.1
				C241,11.3,245.9,16.3,245.9,22.5z M243.8,22.5c0-5-4.1-9-9-9c-5,0-9.1,4-9.1,9s4.1,9.1,9.1,9.1S243.8,27.5,243.8,22.5z
				 M233.4,28.9h-2.9v-13h5.4c2,0,3.3,1.2,3.3,3.4c0,1.7-0.7,2.9-2.6,3.2v0.1c0.6,0,2.6,0.2,2.6,2.5c0,0.8,0.1,3.3,0.3,3.8h-2.9
				c-0.4-0.8-0.4-1.6-0.4-2.5c0-1.5,0.2-2.8-2-2.8h-0.7v5.3H233.4z M233.4,21.7h1.3c1.2,0,1.5-1.1,1.5-1.9c0-1.2-0.6-1.7-1.5-1.7
				h-1.3V21.7z"/>
		</g>
	</g>
</g>
</svg>
